<svg xmlns="http://www.w3.org/2000/svg" xmlns:xlink="http://www.w3.org/1999/xlink" width="618.227" height="128" viewBox="0 0 618.227 128">
  <defs>
    <linearGradient id="linear-gradient" y1="0.5" x2="1" y2="0.5" gradientUnits="objectBoundingBox">
      <stop offset="0" stop-color="#5277f7"/>
      <stop offset="0.185" stop-color="#537df7"/>
      <stop offset="0.445" stop-color="#578ff9"/>
      <stop offset="0.749" stop-color="#5eadfc"/>
      <stop offset="1" stop-color="#6cf"/>
    </linearGradient>
  </defs>
  <g id="Group_255" data-name="Group 255" transform="translate(-1211.807 -540)">
    <g id="Group_107" data-name="Group 107" transform="translate(994.034 -81)">
      <text id="Summarize_massive_datasets_submodular" data-name="Summarize massive datasets submodular" transform="translate(356 743)" font-size="25" font-family="SFCompactText-Regular, SF Text"><tspan x="0" y="0">Summarize massive datasets submodular</tspan></text>
      <text id="SUBMODLIB" transform="translate(356 699)" fill="#5586f8" font-size="82" font-family="SFCompactText-Medium, SF Text" font-weight="500"><tspan x="0" y="0">SUBMODLIB</tspan></text>
    </g>
    <g id="Group_217" data-name="Group 217" transform="translate(675.56 399.406)">
      <path id="Path_573" data-name="Path 573" d="M566.037,191.778c-1.12-.647-2.029-.129-2.029,1.156a4.467,4.467,0,0,0,2.029,3.5c1.119.647,2.028.129,2.028-1.156A4.469,4.469,0,0,0,566.037,191.778ZM559.1,187.77c-1.119-.646-2.028-.129-2.028,1.156a4.473,4.473,0,0,0,2.028,3.5c1.121.646,2.028.129,2.028-1.156A4.469,4.469,0,0,0,559.1,187.77Zm13.881,8.014c-1.12-.646-2.029-.129-2.029,1.156a4.471,4.471,0,0,0,2.029,3.5c1.119.646,2.028.129,2.028-1.156A4.471,4.471,0,0,0,572.977,195.784Zm-20.821-12.02c-1.121-.647-2.028-.13-2.028,1.156a4.465,4.465,0,0,0,2.028,3.5c1.119.647,2.028.129,2.028-1.156A4.469,4.469,0,0,0,552.156,183.764Zm-6.94-4.008c-1.121-.646-2.028-.129-2.028,1.156a4.469,4.469,0,0,0,2.028,3.5c1.119.646,2.028.129,2.028-1.156A4.473,4.473,0,0,0,545.216,179.756Zm-6.941-4.006c-1.119-.647-2.028-.13-2.028,1.156a4.468,4.468,0,0,0,2.028,3.5c1.12.647,2.029.129,2.029-1.156A4.467,4.467,0,0,0,538.275,175.75Zm41.642,28.7c1.12.647,2.028.129,2.028-1.156a4.465,4.465,0,0,0-2.028-3.5c-1.121-.647-2.028-.129-2.028,1.156A4.465,4.465,0,0,0,579.917,204.446Zm-13.88-4.31c-1.12-.647-2.029-.13-2.029,1.155a4.471,4.471,0,0,0,2.029,3.5c1.119.646,2.028.129,2.028-1.156A4.469,4.469,0,0,0,566.037,200.135Zm-6.941-4.008c-1.119-.647-2.028-.129-2.028,1.156a4.469,4.469,0,0,0,2.028,3.5c1.121.647,2.028.13,2.028-1.156A4.465,4.465,0,0,0,559.1,196.128Zm-6.94-4.008c-1.121-.646-2.028-.129-2.028,1.156a4.467,4.467,0,0,0,2.028,3.5c1.119.646,2.028.129,2.028-1.156A4.473,4.473,0,0,0,552.156,192.12Zm27.761,16.028c-1.121-.646-2.028-.129-2.028,1.156a4.469,4.469,0,0,0,2.028,3.5c1.12.646,2.028.129,2.028-1.156A4.469,4.469,0,0,0,579.917,208.148Zm-34.7-20.034c-1.121-.647-2.028-.129-2.028,1.156a4.465,4.465,0,0,0,2.028,3.5c1.119.647,2.028.13,2.028-1.156A4.469,4.469,0,0,0,545.216,188.114Zm27.761,16.028c-1.12-.647-2.029-.129-2.029,1.156a4.467,4.467,0,0,0,2.029,3.5c1.119.647,2.028.129,2.028-1.156A4.469,4.469,0,0,0,572.977,204.142Zm-34.7-20.036c-1.119-.646-2.028-.129-2.028,1.156a4.469,4.469,0,0,0,2.028,3.5c1.12.646,2.029.129,2.029-1.156A4.471,4.471,0,0,0,538.275,184.106Zm41.642,32.4c-1.121-.646-2.028-.129-2.028,1.156a4.465,4.465,0,0,0,2.028,3.5c1.12.647,2.028.13,2.028-1.156A4.467,4.467,0,0,0,579.917,216.505Zm-34.7-20.034c-1.121-.647-2.028-.13-2.028,1.156a4.465,4.465,0,0,0,2.028,3.5c1.119.647,2.028.129,2.028-1.156A4.469,4.469,0,0,0,545.216,196.471Zm-6.941-4.008c-1.119-.646-2.028-.129-2.028,1.156a4.472,4.472,0,0,0,2.028,3.5c1.12.646,2.029.129,2.029-1.156A4.471,4.471,0,0,0,538.275,192.463ZM559.1,204.485c-1.119-.647-2.028-.129-2.028,1.156a4.469,4.469,0,0,0,2.028,3.5c1.121.646,2.028.129,2.028-1.156A4.465,4.465,0,0,0,559.1,204.485Zm13.881,8.013c-1.12-.646-2.029-.129-2.029,1.157a4.467,4.467,0,0,0,2.029,3.5C574.1,217.8,575,217.281,575,216A4.473,4.473,0,0,0,572.977,212.5Zm-6.94-4.006c-1.12-.646-2.029-.129-2.029,1.156a4.467,4.467,0,0,0,2.029,3.5c1.119.647,2.028.13,2.028-1.156A4.471,4.471,0,0,0,566.037,208.491Zm-13.881-8.014c-1.121-.646-2.028-.129-2.028,1.156a4.469,4.469,0,0,0,2.028,3.5c1.119.646,2.028.129,2.028-1.156A4.473,4.473,0,0,0,552.156,200.477Zm-6.94,4.35c-1.121-.646-2.028-.129-2.028,1.156a4.467,4.467,0,0,0,2.028,3.5c1.119.646,2.028.129,2.028-1.156A4.473,4.473,0,0,0,545.216,204.827Zm13.88,8.014c-1.119-.646-2.028-.129-2.028,1.156a4.471,4.471,0,0,0,2.028,3.5c1.121.646,2.028.129,2.028-1.156A4.469,4.469,0,0,0,559.1,212.841Zm13.881,8.014c-1.12-.646-2.029-.129-2.029,1.156a4.471,4.471,0,0,0,2.029,3.5c1.119.646,2.028.129,2.028-1.156A4.471,4.471,0,0,0,572.977,220.855Zm-20.821-12.02c-1.121-.647-2.028-.129-2.028,1.156a4.465,4.465,0,0,0,2.028,3.5c1.119.647,2.028.129,2.028-1.156A4.469,4.469,0,0,0,552.156,208.835Zm13.881,8.014c-1.12-.647-2.029-.129-2.029,1.156a4.467,4.467,0,0,0,2.029,3.5c1.119.647,2.028.129,2.028-1.156A4.469,4.469,0,0,0,566.037,216.849Zm-27.762-16.028c-1.119-.647-2.028-.129-2.028,1.156a4.468,4.468,0,0,0,2.028,3.5c1.12.647,2.029.13,2.029-1.156A4.467,4.467,0,0,0,538.275,200.821Zm41.642,24.042c-1.121-.647-2.028-.13-2.028,1.156a4.465,4.465,0,0,0,2.028,3.5c1.12.647,2.028.129,2.028-1.156A4.465,4.465,0,0,0,579.917,224.863Zm-27.761-7.672c-1.121-.646-2.028-.129-2.028,1.157a4.465,4.465,0,0,0,2.028,3.5c1.119.646,2.028.129,2.028-1.156A4.473,4.473,0,0,0,552.156,217.191Zm27.761,16.028c-1.121-.646-2.028-.129-2.028,1.156a4.467,4.467,0,0,0,2.028,3.5c1.12.646,2.028.129,2.028-1.156A4.469,4.469,0,0,0,579.917,233.219Zm-6.94-4.006c-1.12-.646-2.029-.129-2.029,1.156a4.467,4.467,0,0,0,2.029,3.5c1.119.647,2.028.13,2.028-1.156A4.469,4.469,0,0,0,572.977,229.212Zm-6.94-4.008c-1.12-.646-2.029-.129-2.029,1.156a4.467,4.467,0,0,0,2.029,3.5c1.119.646,2.028.129,2.028-1.156A4.473,4.473,0,0,0,566.037,225.2Zm-20.821-12.02c-1.121-.646-2.028-.129-2.028,1.156a4.469,4.469,0,0,0,2.028,3.5c1.119.646,2.028.129,2.028-1.157A4.469,4.469,0,0,0,545.216,213.184ZM559.1,221.2c-1.119-.646-2.028-.129-2.028,1.156a4.469,4.469,0,0,0,2.028,3.5c1.121.647,2.028.13,2.028-1.156A4.465,4.465,0,0,0,559.1,221.2Zm-20.821-12.02c-1.119-.647-2.028-.13-2.028,1.156a4.468,4.468,0,0,0,2.028,3.5c1.12.646,2.029.129,2.029-1.156A4.467,4.467,0,0,0,538.275,209.178Zm6.941,12.364c-1.121-.647-2.028-.129-2.028,1.156a4.465,4.465,0,0,0,2.028,3.5c1.119.647,2.028.129,2.028-1.156A4.469,4.469,0,0,0,545.216,221.542Zm34.7,20.034c-1.121-.646-2.028-.129-2.028,1.156a4.469,4.469,0,0,0,2.028,3.5c1.12.646,2.028.129,2.028-1.156A4.468,4.468,0,0,0,579.917,241.576Zm-27.761-16.028c-1.121-.646-2.028-.129-2.028,1.156a4.469,4.469,0,0,0,2.028,3.5c1.119.646,2.028.129,2.028-1.156A4.471,4.471,0,0,0,552.156,225.548Zm13.881,8.014c-1.12-.646-2.029-.129-2.029,1.156a4.471,4.471,0,0,0,2.029,3.5c1.119.646,2.028.129,2.028-1.156A4.471,4.471,0,0,0,566.037,233.562Zm6.94,4.008c-1.12-.647-2.029-.13-2.029,1.156a4.467,4.467,0,0,0,2.029,3.5c1.119.647,2.028.129,2.028-1.156A4.469,4.469,0,0,0,572.977,237.57ZM559.1,229.556c-1.119-.647-2.028-.129-2.028,1.156a4.469,4.469,0,0,0,2.028,3.5c1.121.647,2.028.129,2.028-1.156A4.465,4.465,0,0,0,559.1,229.556Zm-20.821-12.022c-1.119-.646-2.028-.129-2.028,1.156a4.47,4.47,0,0,0,2.028,3.5c1.12.646,2.029.129,2.029-1.156A4.471,4.471,0,0,0,538.275,217.534Zm0,8.357c-1.119-.647-2.028-.129-2.028,1.156a4.468,4.468,0,0,0,2.028,3.5c1.12.647,2.029.13,2.029-1.156A4.467,4.467,0,0,0,538.275,225.891Zm6.941,4.006c-1.121-.646-2.028-.129-2.028,1.156a4.467,4.467,0,0,0,2.028,3.5c1.119.646,2.028.129,2.028-1.156A4.473,4.473,0,0,0,545.216,229.9Zm20.821,12.022c-1.12-.647-2.029-.129-2.029,1.156a4.467,4.467,0,0,0,2.029,3.5c1.119.647,2.028.13,2.028-1.156A4.469,4.469,0,0,0,566.037,241.919Zm13.88,8.014c-1.121-.647-2.028-.129-2.028,1.156a4.465,4.465,0,0,0,2.028,3.5c1.12.647,2.028.13,2.028-1.156A4.465,4.465,0,0,0,579.917,249.933Zm-6.94-4.008c-1.12-.646-2.029-.129-2.029,1.156a4.471,4.471,0,0,0,2.029,3.5c1.119.646,2.028.129,2.028-1.156A4.473,4.473,0,0,0,572.977,245.926ZM559.1,237.912c-1.119-.646-2.028-.129-2.028,1.156a4.471,4.471,0,0,0,2.028,3.5c1.121.646,2.028.129,2.028-1.156A4.469,4.469,0,0,0,559.1,237.912Zm-6.94-4.006c-1.121-.647-2.028-.129-2.028,1.156a4.465,4.465,0,0,0,2.028,3.5c1.119.647,2.028.13,2.028-1.156A4.469,4.469,0,0,0,552.156,233.905Z" transform="translate(0 4.969)" fill="url(#linear-gradient)"/>
      <path id="Path_574" data-name="Path 574" d="M578.875,199.268a4.469,4.469,0,0,0-2.028,3.5c0,1.285.908,1.8,2.028,1.156a4.465,4.465,0,0,0,2.028-3.5C580.9,199.139,580,198.62,578.875,199.268ZM599.7,187.246a4.471,4.471,0,0,0-2.029,3.5c0,1.285.908,1.8,2.029,1.156a4.471,4.471,0,0,0,2.028-3.5C601.723,187.117,600.815,186.6,599.7,187.246Zm6.94-4.006a4.465,4.465,0,0,0-2.028,3.5c0,1.286.907,1.8,2.028,1.156a4.466,4.466,0,0,0,2.028-3.5C608.663,183.111,607.756,182.593,606.636,183.24Zm6.94-4.008a4.472,4.472,0,0,0-2.028,3.5c0,1.285.908,1.8,2.028,1.156a4.469,4.469,0,0,0,2.029-3.5C615.6,179.1,614.7,178.586,613.576,179.232ZM585.815,195.26a4.473,4.473,0,0,0-2.028,3.5c0,1.285.908,1.8,2.028,1.156a4.469,4.469,0,0,0,2.029-3.5C587.843,195.131,586.935,194.614,585.815,195.26Zm34.7-15.381a4.468,4.468,0,0,0,2.028-3.5c0-1.285-.908-1.8-2.028-1.156a4.468,4.468,0,0,0-2.029,3.5C618.488,180.009,619.4,180.527,620.517,179.879Zm-27.761,11.374a4.467,4.467,0,0,0-2.029,3.5c0,1.286.908,1.8,2.029,1.156a4.468,4.468,0,0,0,2.028-3.5C594.783,191.125,593.875,190.607,592.756,191.254Zm0,8.356a4.471,4.471,0,0,0-2.029,3.5c0,1.285.908,1.8,2.029,1.156a4.47,4.47,0,0,0,2.028-3.5C594.783,199.481,593.875,198.964,592.756,199.61Zm13.88-8.013a4.466,4.466,0,0,0-2.028,3.5c0,1.285.907,1.8,2.028,1.156a4.466,4.466,0,0,0,2.028-3.5C608.663,191.467,607.756,190.95,606.636,191.6ZM599.7,195.6a4.467,4.467,0,0,0-2.029,3.5c0,1.285.908,1.8,2.029,1.156a4.473,4.473,0,0,0,2.028-3.5C601.723,195.475,600.815,194.957,599.7,195.6Zm-13.881,8.014a4.471,4.471,0,0,0-2.028,3.5c0,1.286.908,1.8,2.028,1.156a4.467,4.467,0,0,0,2.029-3.5C587.843,203.489,586.935,202.971,585.815,203.617Zm27.761-16.028a4.471,4.471,0,0,0-2.028,3.5c0,1.285.908,1.8,2.028,1.156a4.471,4.471,0,0,0,2.029-3.5C615.6,187.461,614.7,186.943,613.576,187.589Zm-34.7,20.034a4.473,4.473,0,0,0-2.028,3.5c0,1.285.908,1.8,2.028,1.156a4.468,4.468,0,0,0,2.028-3.5C580.9,207.5,580,206.978,578.875,207.624Zm41.642-24.041a4.466,4.466,0,0,0-2.029,3.5c0,1.285.908,1.8,2.029,1.156a4.468,4.468,0,0,0,2.028-3.5C622.544,183.453,621.636,182.936,620.517,183.583Zm-6.941,12.364a4.468,4.468,0,0,0-2.028,3.5c0,1.286.908,1.8,2.028,1.156a4.467,4.467,0,0,0,2.029-3.5C615.6,195.818,614.7,195.3,613.576,195.947Zm-13.88,8.014a4.467,4.467,0,0,0-2.029,3.5c0,1.285.908,1.8,2.029,1.156a4.469,4.469,0,0,0,2.028-3.5C601.723,203.832,600.815,203.314,599.7,203.961Zm-13.881,8.014a4.469,4.469,0,0,0-2.028,3.5c0,1.285.908,1.8,2.028,1.156a4.467,4.467,0,0,0,2.029-3.5C587.843,211.845,586.935,211.327,585.815,211.975Zm6.941-4.008a4.469,4.469,0,0,0-2.029,3.5c0,1.285.908,1.8,2.029,1.156a4.472,4.472,0,0,0,2.028-3.5C594.783,207.838,593.875,207.321,592.756,207.967Zm27.761-16.028a4.471,4.471,0,0,0-2.029,3.5c0,1.285.908,1.8,2.029,1.156a4.471,4.471,0,0,0,2.028-3.5C622.544,191.81,621.636,191.293,620.517,191.939Zm-13.881,8.014a4.469,4.469,0,0,0-2.028,3.5c0,1.285.907,1.8,2.028,1.156a4.468,4.468,0,0,0,2.028-3.5C608.663,199.824,607.756,199.307,606.636,199.953Zm-27.761,16.028a4.471,4.471,0,0,0-2.028,3.5c0,1.285.908,1.8,2.028,1.156a4.469,4.469,0,0,0,2.028-3.5C580.9,215.852,580,215.335,578.875,215.981ZM620.517,200.3a4.467,4.467,0,0,0-2.029,3.5c0,1.285.908,1.8,2.029,1.156a4.473,4.473,0,0,0,2.028-3.5C622.544,200.168,621.636,199.65,620.517,200.3Zm-6.941,4.006a4.472,4.472,0,0,0-2.028,3.5c0,1.285.908,1.8,2.028,1.156a4.469,4.469,0,0,0,2.029-3.5C615.6,204.174,614.7,203.657,613.576,204.3Zm-34.7,20.036a4.469,4.469,0,0,0-2.028,3.5c0,1.286.908,1.8,2.028,1.156a4.466,4.466,0,0,0,2.028-3.5C580.9,224.21,580,223.691,578.875,224.338Zm6.94-4.008a4.473,4.473,0,0,0-2.028,3.5c0,1.285.908,1.8,2.028,1.156a4.469,4.469,0,0,0,2.029-3.5C587.843,220.2,586.935,219.685,585.815,220.331Zm6.941-4.006a4.467,4.467,0,0,0-2.029,3.5c0,1.286.908,1.8,2.029,1.156a4.468,4.468,0,0,0,2.028-3.5C594.783,216.2,593.875,215.677,592.756,216.324Zm6.94-4.008a4.471,4.471,0,0,0-2.029,3.5c0,1.285.908,1.8,2.029,1.156a4.473,4.473,0,0,0,2.028-3.5C601.723,212.188,600.815,211.671,599.7,212.317Zm6.94-4.006a4.465,4.465,0,0,0-2.028,3.5c0,1.286.907,1.8,2.028,1.156a4.466,4.466,0,0,0,2.028-3.5C608.663,208.182,607.756,207.663,606.636,208.31Zm-13.88,16.37a4.471,4.471,0,0,0-2.029,3.5c0,1.285.908,1.8,2.029,1.156a4.469,4.469,0,0,0,2.028-3.5C594.783,224.552,593.875,224.034,592.756,224.681Zm-6.941,4.008a4.471,4.471,0,0,0-2.028,3.5c0,1.285.908,1.8,2.028,1.155a4.467,4.467,0,0,0,2.029-3.5C587.843,228.559,586.935,228.042,585.815,228.688Zm-6.94,4.006a4.473,4.473,0,0,0-2.028,3.5c0,1.285.908,1.8,2.028,1.156a4.468,4.468,0,0,0,2.028-3.5C580.9,232.566,580,232.048,578.875,232.695Zm20.821-12.02a4.469,4.469,0,0,0-2.029,3.5c0,1.285.908,1.8,2.029,1.156a4.473,4.473,0,0,0,2.028-3.5C601.723,220.545,600.815,220.028,599.7,220.674Zm13.88-8.014a4.472,4.472,0,0,0-2.028,3.5c0,1.285.908,1.8,2.028,1.156a4.471,4.471,0,0,0,2.029-3.5C615.6,212.531,614.7,212.014,613.576,212.66Zm-6.94,4.008a4.465,4.465,0,0,0-2.028,3.5c0,1.285.907,1.8,2.028,1.156a4.466,4.466,0,0,0,2.028-3.5C608.663,216.538,607.756,216.02,606.636,216.668Zm13.881-8.014a4.467,4.467,0,0,0-2.029,3.5c0,1.285.908,1.8,2.029,1.156a4.469,4.469,0,0,0,2.028-3.5C622.544,208.525,621.636,208.007,620.517,208.654Zm-34.7,28.392a4.469,4.469,0,0,0-2.028,3.5c0,1.285.908,1.8,2.028,1.156a4.467,4.467,0,0,0,2.029-3.5C587.843,236.915,586.935,236.4,585.815,237.045Zm34.7-20.034a4.467,4.467,0,0,0-2.029,3.5c0,1.285.908,1.8,2.029,1.156a4.473,4.473,0,0,0,2.028-3.5C622.544,216.881,621.636,216.364,620.517,217.011Zm-6.941,4.006a4.468,4.468,0,0,0-2.028,3.5c0,1.286.908,1.8,2.028,1.156a4.467,4.467,0,0,0,2.029-3.5C615.6,220.889,614.7,220.37,613.576,221.017Zm-34.7,20.034a4.473,4.473,0,0,0-2.028,3.5c0,1.285.908,1.8,2.028,1.156a4.469,4.469,0,0,0,2.028-3.5C580.9,240.923,580,240.406,578.875,241.052Zm20.821-12.02a4.467,4.467,0,0,0-2.029,3.5c0,1.286.908,1.8,2.029,1.156a4.469,4.469,0,0,0,2.028-3.5C601.723,228.9,600.815,228.384,599.7,229.031Zm6.94-4.008a4.469,4.469,0,0,0-2.028,3.5c0,1.285.907,1.8,2.028,1.156a4.47,4.47,0,0,0,2.028-3.5C608.663,224.9,607.756,224.378,606.636,225.024Zm-13.88,8.014a4.471,4.471,0,0,0-2.029,3.5c0,1.285.908,1.8,2.029,1.156a4.472,4.472,0,0,0,2.028-3.5C594.783,232.909,593.875,232.392,592.756,233.038Zm-13.881,16.371a4.469,4.469,0,0,0-2.028,3.5c0,1.285.908,1.8,2.028,1.155a4.465,4.465,0,0,0,2.028-3.5C580.9,249.28,580,248.762,578.875,249.409Zm6.94-4.008a4.473,4.473,0,0,0-2.028,3.5c0,1.285.908,1.8,2.028,1.156a4.469,4.469,0,0,0,2.029-3.5C587.843,245.273,586.935,244.755,585.815,245.4Zm13.881-8.014a4.471,4.471,0,0,0-2.029,3.5c0,1.285.908,1.8,2.029,1.156a4.469,4.469,0,0,0,2.028-3.5C601.723,237.259,600.815,236.741,599.7,237.388Zm6.94-4.006a4.467,4.467,0,0,0-2.028,3.5c0,1.286.907,1.8,2.028,1.156a4.466,4.466,0,0,0,2.028-3.5C608.663,233.252,607.756,232.735,606.636,233.381Zm-13.88,8.014a4.468,4.468,0,0,0-2.029,3.5c0,1.286.908,1.8,2.029,1.156a4.468,4.468,0,0,0,2.028-3.5C594.783,241.266,593.875,240.748,592.756,241.4Zm20.82-12.022a4.472,4.472,0,0,0-2.028,3.5c0,1.285.908,1.8,2.028,1.156a4.467,4.467,0,0,0,2.029-3.5C615.6,229.245,614.7,228.727,613.576,229.374Zm6.941-4.006a4.469,4.469,0,0,0-2.029,3.5c0,1.285.908,1.8,2.029,1.155a4.469,4.469,0,0,0,2.028-3.5C622.544,225.238,621.636,224.721,620.517,225.367Z" transform="translate(7.796 4.869)" fill="url(#linear-gradient)"/>
      <path id="Union_1" data-name="Union 1" d="M42.486,51.928a1.233,1.233,0,0,1-.013-2.336,4.471,4.471,0,0,1,4.043.008,1.232,1.232,0,0,1,.013,2.334,4.116,4.116,0,0,1-2.012.48A4.16,4.16,0,0,1,42.486,51.928ZM35.545,47.92a1.232,1.232,0,0,1-.012-2.333,4.468,4.468,0,0,1,4.043.006,1.232,1.232,0,0,1,.012,2.334,4.112,4.112,0,0,1-2.01.481A4.157,4.157,0,0,1,35.545,47.92Zm14.178-.172a1.231,1.231,0,0,1-.013-2.333,4.469,4.469,0,0,1,4.042.006,1.232,1.232,0,0,1,.014,2.334,4.461,4.461,0,0,1-4.043-.008ZM28.6,43.914a1.233,1.233,0,0,1-.013-2.336,4.471,4.471,0,0,1,4.043.008,1.232,1.232,0,0,1,.013,2.334,4.115,4.115,0,0,1-2.011.48A4.161,4.161,0,0,1,28.6,43.914Zm14.178-.172a1.233,1.233,0,0,1-.013-2.336,4.468,4.468,0,0,1,4.044.009,1.232,1.232,0,0,1,.013,2.333,4.475,4.475,0,0,1-4.044-.006Zm14.176-.172a1.232,1.232,0,0,1-.012-2.334,4.468,4.468,0,0,1,4.043.008A1.232,1.232,0,0,1,61,43.577a4.108,4.108,0,0,1-2.009.48A4.166,4.166,0,0,1,56.959,43.57ZM21.664,39.906a1.231,1.231,0,0,1-.013-2.333,4.471,4.471,0,0,1,4.043.006c1.121.648,1.127,1.692.013,2.334a4.461,4.461,0,0,1-4.043-.008Zm14.178-.172A1.231,1.231,0,0,1,35.83,37.4a4.471,4.471,0,0,1,4.043.006,1.233,1.233,0,0,1,.012,2.336,4.106,4.106,0,0,1-2.008.48A4.152,4.152,0,0,1,35.843,39.734Zm14.176-.172a1.232,1.232,0,0,1-.012-2.333,4.471,4.471,0,0,1,4.043.006,1.233,1.233,0,0,1,.012,2.336,4.1,4.1,0,0,1-2.008.48A4.163,4.163,0,0,1,50.019,39.562ZM64.2,39.392a1.232,1.232,0,0,1-.013-2.334,4.472,4.472,0,0,1,4.044.006,1.233,1.233,0,0,1,.013,2.336,4.47,4.47,0,0,1-4.043-.008ZM14.725,35.9a1.233,1.233,0,0,1-.014-2.336,4.471,4.471,0,0,1,4.043.008,1.232,1.232,0,0,1,.013,2.334,4.472,4.472,0,0,1-4.042-.006ZM28.9,35.728a1.232,1.232,0,0,1-.012-2.334,4.465,4.465,0,0,1,4.043.008,1.232,1.232,0,0,1,.012,2.333,4.115,4.115,0,0,1-2.01.48A4.162,4.162,0,0,1,28.9,35.728Zm14.178-.172a1.232,1.232,0,0,1-.014-2.334,4.468,4.468,0,0,1,4.043.008,1.231,1.231,0,0,1,.013,2.333,4.463,4.463,0,0,1-4.042-.006Zm14.177-.172a1.232,1.232,0,0,1-.013-2.334,4.468,4.468,0,0,1,4.043.008,1.232,1.232,0,0,1,.013,2.333,4.466,4.466,0,0,1-4.043-.006Zm14.177-.172a1.232,1.232,0,0,1-.013-2.334,4.471,4.471,0,0,1,4.043.007,1.231,1.231,0,0,1,.012,2.333,4.1,4.1,0,0,1-2.009.481A4.151,4.151,0,0,1,71.435,35.213ZM7.784,31.892a1.232,1.232,0,0,1-.013-2.333,4.471,4.471,0,0,1,4.043.006,1.232,1.232,0,0,1,.012,2.334,4.092,4.092,0,0,1-2.008.481A4.155,4.155,0,0,1,7.784,31.892Zm14.177-.172a1.232,1.232,0,0,1-.013-2.333,4.471,4.471,0,0,1,4.043.006,1.233,1.233,0,0,1,.013,2.336,4.109,4.109,0,0,1-2.008.48A4.159,4.159,0,0,1,21.962,31.72Zm14.178-.172a1.231,1.231,0,0,1-.014-2.333,4.471,4.471,0,0,1,4.043.006,1.233,1.233,0,0,1,.014,2.336,4.11,4.11,0,0,1-2.009.48A4.152,4.152,0,0,1,36.14,31.548Zm14.176-.171a1.232,1.232,0,0,1-.012-2.334,4.471,4.471,0,0,1,4.043.006,1.233,1.233,0,0,1,.012,2.336,4.108,4.108,0,0,1-2.009.48A4.157,4.157,0,0,1,50.316,31.378Zm14.178-.172a1.232,1.232,0,0,1-.014-2.334,4.471,4.471,0,0,1,4.043.006,1.233,1.233,0,0,1,.014,2.336,4.47,4.47,0,0,1-4.043-.008Zm14.177-.172a1.231,1.231,0,0,1-.013-2.333,4.465,4.465,0,0,1,4.043.006,1.232,1.232,0,0,1,.013,2.334,4.47,4.47,0,0,1-4.043-.008ZM.844,27.886A1.233,1.233,0,0,1,.83,25.55a4.468,4.468,0,0,1,4.043.009,1.231,1.231,0,0,1,.014,2.333,4.116,4.116,0,0,1-2.012.48A4.161,4.161,0,0,1,.844,27.886Zm14.177-.172c-1.12-.648-1.126-1.692-.013-2.334a4.468,4.468,0,0,1,4.043.007,1.231,1.231,0,0,1,.013,2.333,4.116,4.116,0,0,1-2.012.48A4.16,4.16,0,0,1,15.022,27.714ZM29.2,27.542a1.232,1.232,0,0,1-.012-2.334,4.466,4.466,0,0,1,4.042.008,1.232,1.232,0,0,1,.013,2.333,4.466,4.466,0,0,1-4.043-.006Zm14.177-.172a1.232,1.232,0,0,1-.012-2.334,4.468,4.468,0,0,1,4.044.008,1.232,1.232,0,0,1,.012,2.333,4.466,4.466,0,0,1-4.043-.006ZM57.555,27.2a1.232,1.232,0,0,1-.013-2.334,4.469,4.469,0,0,1,4.042.008,1.231,1.231,0,0,1,.014,2.333,4.466,4.466,0,0,1-4.043-.006Zm14.176-.172a1.232,1.232,0,0,1-.012-2.334,4.471,4.471,0,0,1,4.043.008,1.233,1.233,0,0,1,.012,2.336,4.1,4.1,0,0,1-2.008.479A4.162,4.162,0,0,1,71.731,27.027Zm14.178-.171a1.233,1.233,0,0,1-.012-2.336,4.471,4.471,0,0,1,4.043.007,1.233,1.233,0,0,1,.012,2.336,4.47,4.47,0,0,1-4.043-.008ZM8.081,23.706a1.231,1.231,0,0,1-.013-2.333,4.471,4.471,0,0,1,4.043.006,1.233,1.233,0,0,1,.013,2.336,4.11,4.11,0,0,1-2.009.48A4.155,4.155,0,0,1,8.081,23.706Zm14.177-.171a1.232,1.232,0,0,1-.012-2.334,4.471,4.471,0,0,1,4.043.006,1.233,1.233,0,0,1,.012,2.336,4.47,4.47,0,0,1-4.043-.008Zm14.177-.172a1.232,1.232,0,0,1-.013-2.334,4.468,4.468,0,0,1,4.044.008,1.232,1.232,0,0,1,.013,2.334,4.111,4.111,0,0,1-2.009.48A4.158,4.158,0,0,1,36.436,23.364Zm14.178-.172a1.231,1.231,0,0,1-.013-2.333,4.465,4.465,0,0,1,4.043.006,1.232,1.232,0,0,1,.013,2.334,4.47,4.47,0,0,1-4.043-.008Zm14.176-.172a1.232,1.232,0,0,1-.012-2.333,4.465,4.465,0,0,1,4.044.006,1.232,1.232,0,0,1,.012,2.334,4.1,4.1,0,0,1-2.009.48A4.157,4.157,0,0,1,64.791,23.02Zm14.178-.172a1.231,1.231,0,0,1-.013-2.333A4.468,4.468,0,0,1,83,20.522a1.232,1.232,0,0,1,.013,2.334,4.462,4.462,0,0,1-4.044-.008Zm-63.651-3.32a1.232,1.232,0,0,1-.013-2.334,4.468,4.468,0,0,1,4.043.008,1.231,1.231,0,0,1,.013,2.333,4.466,4.466,0,0,1-4.043-.006ZM29.5,19.357a1.232,1.232,0,0,1-.013-2.334,4.468,4.468,0,0,1,4.043.007,1.231,1.231,0,0,1,.013,2.333,4.466,4.466,0,0,1-4.043-.006Zm14.177-.172a1.232,1.232,0,0,1-.012-2.334,4.471,4.471,0,0,1,4.043.008,1.232,1.232,0,0,1,.012,2.333,4.1,4.1,0,0,1-2.01.481A4.15,4.15,0,0,1,43.673,19.185Zm14.177-.172a1.233,1.233,0,0,1-.013-2.334,4.472,4.472,0,0,1,4.044.008,1.233,1.233,0,0,1,.013,2.336,4.1,4.1,0,0,1-2.008.478A4.162,4.162,0,0,1,57.851,19.014Zm14.178-.171a1.233,1.233,0,0,1-.013-2.336,4.471,4.471,0,0,1,4.043.008,1.233,1.233,0,0,1,.013,2.336,4.47,4.47,0,0,1-4.043-.008ZM22.555,15.35a1.232,1.232,0,0,1-.012-2.334,4.468,4.468,0,0,1,4.043.008,1.232,1.232,0,0,1,.012,2.334,4.1,4.1,0,0,1-2.009.48A4.157,4.157,0,0,1,22.555,15.35Zm14.178-.172a1.232,1.232,0,0,1-.013-2.334,4.468,4.468,0,0,1,4.043.008,1.232,1.232,0,0,1,.013,2.334,4.47,4.47,0,0,1-4.043-.008Zm14.178-.172a1.231,1.231,0,0,1-.014-2.333,4.468,4.468,0,0,1,4.043.006,1.232,1.232,0,0,1,.013,2.334,4.459,4.459,0,0,1-4.042-.008Zm14.176-.172a1.232,1.232,0,0,1-.012-2.333,4.468,4.468,0,0,1,4.043.006,1.232,1.232,0,0,1,.012,2.334,4.462,4.462,0,0,1-4.043-.007ZM29.793,11.171a1.232,1.232,0,0,1-.013-2.334,4.471,4.471,0,0,1,4.043.008c1.12.647,1.126,1.692.013,2.333a4.1,4.1,0,0,1-2.012.481A4.146,4.146,0,0,1,29.793,11.171ZM43.972,11a1.233,1.233,0,0,1-.014-2.336A4.471,4.471,0,0,1,48,8.673a1.233,1.233,0,0,1,.014,2.336A4.47,4.47,0,0,1,43.972,11Zm14.176-.172a1.233,1.233,0,0,1-.012-2.336A4.471,4.471,0,0,1,62.18,8.5a1.233,1.233,0,0,1,.012,2.336,4.122,4.122,0,0,1-2.009.48A4.169,4.169,0,0,1,58.148,10.829ZM37.03,6.993a1.231,1.231,0,0,1-.012-2.333,4.466,4.466,0,0,1,4.042.006A1.232,1.232,0,0,1,41.074,7a4.108,4.108,0,0,1-2.009.48A4.155,4.155,0,0,1,37.03,6.993Zm14.177-.172A1.232,1.232,0,0,1,51.2,4.487a4.471,4.471,0,0,1,4.043.006,1.232,1.232,0,0,1,.013,2.334,4.115,4.115,0,0,1-2.011.481A4.15,4.15,0,0,1,51.208,6.821Zm-6.94-4.006A1.233,1.233,0,0,1,44.255.479,4.471,4.471,0,0,1,48.3.487a1.233,1.233,0,0,1,.013,2.336A4.114,4.114,0,0,1,46.3,3.3h-.007A4.146,4.146,0,0,1,44.268,2.815Z" transform="translate(538.682 149.594)" fill="url(#linear-gradient)"/>
    </g>
  </g>
</svg>
